<svg xmlns="http://www.w3.org/2000/svg" viewBox="266 185 786 946">
  <g transform="translate(787,290)"><path fill="currentColor" d="M0 0 C2.97 0 5.94 0 9 0 C10.98 0.99 12.96 1.98 15 3 C15.99 3.99 16.98 4.98 18 6 C18.33 7.65 18.66 9.3 19 11 C17.68 12.32 16.36 13.64 15 15 C13.02 15.99 13.02 15.99 11 17 C7.37 17 3.74 17 0 17 C-2.64 15.35 -5.28 13.7 -8 12 C-8.66 11.34 -9.32 10.68 -10 10 C-9.67 8.35 -9.34 6.7 -9 5 C-7.35 3.68 -5.7 2.36 -4 1 C-2.68 0.67 -1.36 0.34 0 0 Z"/></g>
  <g transform="translate(679,224)"><path fill="currentColor" d="M0 0 C2.31 0 4.62 0 7 0 C9.31 1.98 11.62 3.96 14 6 C15.32 8.97 16.64 11.94 18 15 C18 16.98 18 18.96 18 21 C17.34 21.33 16.68 21.66 16 22 C13.69 20.68 11.38 19.36 9 18 C9 21.3 9 24.6 9 28 C7.68 28.33 6.36 28.66 5 29 C3.35 27.35 1.7 25.7 0 24 C-0.99 22.35 -1.98 20.7 -3 19 C-3.33 17.68 -3.66 16.36 -4 15 C-4 11.7 -4 8.4 -4 5 C-3.34 3.68 -2.68 2.36 -2 1 C-1.34 0.67 -0.68 0.34 0 0 Z"/></g>
  <g transform="translate(797,185)"><path fill="currentColor" d="M0 0 C2.31 0 4.62 0 7 0 C10.96 1.485 10.96 1.485 15 3 C17.475 5.475 17.475 5.475 20 8 C22.475 11.96 22.475 11.96 25 16 C25.66 18.97 26.32 21.94 27 25 C27 30.61 27 36.22 27 42 C31.29 46.29 35.58 50.58 40 55 C43.63 59.62 47.26 64.24 51 69 C53.64 73.62 56.28 78.24 59 83 C59.66 84.98 60.32 86.96 61 89 C61 93.29 61 97.58 61 102 C60.67 104.64 60.34 107.28 60 110 C63.96 115.445 63.96 115.445 68 121 C72.29 126.61 76.58 132.22 81 138 C84.96 143.61 88.92 149.22 93 155 C94.32 157.64 95.64 160.28 97 163 C97.33 165.31 97.66 167.62 98 170 C110.87 172.31 123.74 174.62 137 177 C152.84 179.64 168.68 182.28 185 185 C198.86 187.64 212.72 190.28 227 193 C232.94 194.32 238.88 195.64 245 197 C246.98 198.32 248.96 199.64 251 201 C251.99 202.65 252.98 204.3 254 206 C254.33 212.27 254.66 218.54 255 225 C254.67 291.66 254.34 358.32 254 427 C252.515 430.465 252.515 430.465 251 434 C239.615 440.435 239.615 440.435 228 447 C228.33 449.31 228.66 451.62 229 454 C229 457.63 229 461.26 229 465 C227.68 469.95 226.36 474.9 225 480 C222.69 484.62 220.38 489.24 218 494 C214.7 498.29 211.4 502.58 208 507 C204.37 510.3 200.74 513.6 197 517 C192.38 519.97 187.76 522.94 183 526 C175.08 529.96 175.08 529.96 167 534 C162.05 535.65 157.1 537.3 152 539 C146.72 539.99 141.44 540.98 136 542 C133.03 542.33 130.06 542.66 127 543 C115.78 543 104.56 543 93 543 C81.615 541.515 81.615 541.515 70 540 C67.36 543.63 64.72 547.26 62 551 C58.7 554.3 55.4 557.6 52 561 C48.7 563.31 45.4 565.62 42 568 C34.08 571.96 34.08 571.96 26 576 C19.73 577.98 13.46 579.96 7 582 C1.39 582.99 -4.22 583.98 -10 585 C-14.62 585.33 -19.24 585.66 -24 586 C-28.29 586 -32.58 586 -37 586 C-44.59 585.34 -52.18 584.68 -60 584 C-69.24 582.35 -78.48 580.7 -88 579 C-93.61 577.68 -99.22 576.36 -105 575 C-109.95 589.85 -109.95 589.85 -115 605 C-119.95 615.89 -119.95 615.89 -125 627 C-126.485 629.475 -126.485 629.475 -128 632 C-127.67 633.65 -127.34 635.3 -127 637 C-123.04 643.27 -119.08 649.54 -115 656 C-110.545 663.425 -110.545 663.425 -106 671 C-102.7 676.94 -99.4 682.88 -96 689 C-93.69 693.95 -91.38 698.9 -89 704 C-87.35 709.28 -85.7 714.56 -84 720 C-81.69 731.88 -79.38 743.76 -77 756 C-75.68 765.57 -74.36 775.14 -73 785 C-72.01 793.25 -71.02 801.5 -70 810 C-69.01 812.97 -68.02 815.94 -67 819 C-65.02 820.485 -65.02 820.485 -63 822 C-59.37 821.67 -55.74 821.34 -52 821 C-40.12 818.525 -40.12 818.525 -28 816 C-22.72 816 -17.44 816 -12 816 C-6.06 817.485 -6.06 817.485 0 819 C3.3 820.98 6.6 822.96 10 825 C11.98 827.31 13.96 829.62 16 832 C16.66 833.65 17.32 835.3 18 837 C17.67 839.97 17.34 842.94 17 846 C14.69 849.63 12.38 853.26 10 857 C6.37 860.63 2.74 864.26 -1 868 C-6.61 871.96 -12.22 875.92 -18 880 C-24.93 884.29 -31.86 888.58 -39 893 C-47.25 897.62 -55.5 902.24 -64 907 C-71.92 910.96 -71.92 910.96 -80 915 C-83.96 916.98 -87.92 918.96 -92 921 C-97.94 922.98 -103.88 924.96 -110 927 C-111.98 927.33 -113.96 927.66 -116 928 C-120.95 928 -125.9 928 -131 928 C-135.29 926.68 -139.58 925.36 -144 924 C-147.96 921.03 -147.96 921.03 -152 918 C-154.97 914.7 -157.94 911.4 -161 908 C-165.95 898.43 -170.9 888.86 -176 879 C-181.445 869.1 -181.445 869.1 -187 859 C-192.445 850.585 -192.445 850.585 -198 842 C-202.455 836.06 -202.455 836.06 -207 830 C-209.97 826.7 -212.94 823.4 -216 820 C-218.31 817.69 -220.62 815.38 -223 813 C-227.62 809.37 -232.24 805.74 -237 802 C-241.62 798.7 -246.24 795.4 -251 792 C-257.93 787.71 -264.86 783.42 -272 779 C-273.65 778.67 -275.3 778.34 -277 778 C-280.96 783.94 -284.92 789.88 -289 796 C-292.63 800.29 -296.26 804.58 -300 809 C-304.29 813.29 -308.58 817.58 -313 822 C-317.29 825.3 -321.58 828.6 -326 832 C-330.62 834.97 -335.24 837.94 -340 841 C-345.28 843.97 -350.56 846.94 -356 850 C-371.84 857.92 -371.84 857.92 -388 866 C-392.62 868.31 -397.24 870.62 -402 873 C-403.98 874.65 -405.96 876.3 -408 878 C-408.66 880.64 -409.32 883.28 -410 886 C-408.02 886.66 -406.04 887.32 -404 888 C-400.37 890.31 -396.74 892.62 -393 895 C-388.545 899.455 -388.545 899.455 -384 904 C-381.525 908.455 -381.525 908.455 -379 913 C-378.34 915.31 -377.68 917.62 -377 920 C-377 922.64 -377 925.28 -377 928 C-377.99 930.31 -378.98 932.62 -380 935 C-382.31 936.98 -384.62 938.96 -387 941 C-389.97 941.99 -392.94 942.98 -396 944 C-402.27 944.66 -408.54 945.32 -415 946 C-425.89 946 -436.78 946 -448 946 C-453.28 945.67 -458.56 945.34 -464 945 C-469.94 943.515 -469.94 943.515 -476 942 C-480.95 939.525 -480.95 939.525 -486 937 C-489.3 934.03 -492.6 931.06 -496 928 C-498.31 925.36 -500.62 922.72 -503 920 C-505.97 914.72 -508.94 909.44 -512 904 C-515.63 895.75 -519.26 887.5 -523 879 C-524.98 873.06 -526.96 867.12 -529 861 C-529.66 857.7 -530.32 854.4 -531 851 C-531 844.07 -531 837.14 -531 830 C-529.68 826.7 -528.36 823.4 -527 820 C-525.02 817.03 -523.04 814.06 -521 811 C-516.38 806.71 -511.76 802.42 -507 798 C-504.36 795.69 -501.72 793.38 -499 791 C-493.39 785.39 -487.78 779.78 -482 774 C-479.03 769.71 -476.06 765.42 -473 761 C-471.02 757.04 -469.04 753.08 -467 749 C-466.01 745.04 -465.02 741.08 -464 737 C-463.34 730.73 -462.68 724.46 -462 718 C-461.505 699.19 -461.505 699.19 -461 680 C-462.32 680.33 -463.64 680.66 -465 681 C-467.31 681 -469.62 681 -472 681 C-473.98 679.68 -475.96 678.36 -478 677 C-479.32 674.36 -480.64 671.72 -482 669 C-482.66 666.03 -483.32 663.06 -484 660 C-484 652.08 -484 644.16 -484 636 C-482.68 629.73 -481.36 623.46 -480 617 C-477.36 610.07 -474.72 603.14 -472 596 C-470.02 591.71 -468.04 587.42 -466 583 C-463.69 570.79 -461.38 558.58 -459 546 C-457.02 538.41 -455.04 530.82 -453 523 C-449.37 512.44 -445.74 501.88 -442 491 C-437.71 481.1 -433.42 471.2 -429 461 C-424.71 452.75 -420.42 444.5 -416 436 C-412.7 430.39 -409.4 424.78 -406 419 C-400.72 410.75 -395.44 402.5 -390 394 C-386.37 388.39 -382.74 382.78 -379 377 C-374.71 369.74 -370.42 362.48 -366 355 C-363.03 349.39 -360.06 343.78 -357 338 C-352.71 328.43 -348.42 318.86 -344 309 C-340.37 299.76 -336.74 290.52 -333 281 C-328.71 268.79 -324.42 256.58 -320 244 C-316.37 236.41 -312.74 228.82 -309 221 C-306.03 216.38 -303.06 211.76 -300 207 C-296.7 202.71 -293.4 198.42 -290 194 C-286.37 190.04 -282.74 186.08 -279 182 C-276.69 179.69 -274.38 177.38 -272 175 C-269.69 172.36 -267.38 169.72 -265 167 C-261.37 163.04 -257.74 159.08 -254 155 C-250.04 149.72 -246.08 144.44 -242 139 C-238.04 133.39 -234.08 127.78 -230 122 C-224.72 115.07 -219.44 108.14 -214 101 C-210.37 96.71 -206.74 92.42 -203 88 C-199.04 83.71 -195.08 79.42 -191 75 C-185.555 69.555 -185.555 69.555 -180 64 C-177.36 61.69 -174.72 59.38 -172 57 C-163.09 50.07 -163.09 50.07 -154 43 C-152.02 41.68 -150.04 40.36 -148 39 C-146.68 35.37 -145.36 31.74 -144 28 C-142.02 25.36 -140.04 22.72 -138 20 C-136.35 18.68 -134.7 17.36 -133 16 C-128.05 14.02 -128.05 14.02 -123 12 C-116.73 12 -110.46 12 -104 12 C-98.06 10.68 -92.12 9.36 -86 8 C-83.36 7.67 -80.72 7.34 -78 7 C-68.43 7 -58.86 7 -49 7 C-42.4 8.32 -35.8 9.64 -29 11 C-25.04 11.99 -25.04 11.99 -21 13 C-18.69 10.69 -16.38 8.38 -14 6 C-10.7 4.35 -7.4 2.7 -4 1 C-2.68 0.67 -1.36 0.34 0 0 Z M0 13 C-2.475 14.485 -2.475 14.485 -5 16 C-5.66 16.99 -6.32 17.98 -7 19 C-0.73 22.63 5.54 26.26 12 30 C12.99 30.33 13.98 30.66 15 31 C14.505 26.05 14.505 26.05 14 21 C12.68 19.02 11.36 17.04 10 15 C9.01 14.34 8.02 13.68 7 13 C4.69 13 2.38 13 0 13 Z M-69 19 C-79.395 20.485 -79.395 20.485 -90 22 C-90 22.99 -90 23.98 -90 25 C-88.35 27.64 -86.7 30.28 -85 33 C-84.67 36.63 -84.34 40.26 -84 44 C-85.98 42.35 -87.96 40.7 -90 39 C-92.31 36.36 -94.62 33.72 -97 31 C-100.96 28.525 -100.96 28.525 -105 26 C-105.99 25.67 -106.98 25.34 -108 25 C-112.29 25 -116.58 25 -121 25 C-122.98 25.99 -124.96 26.98 -127 28 C-128.98 30.31 -130.96 32.62 -133 35 C-134.485 38.96 -134.485 38.96 -136 43 C-136 46.63 -136 50.26 -136 54 C-134.02 60.435 -134.02 60.435 -132 67 C-128.04 74.92 -128.04 74.92 -124 83 C-123.67 84.32 -123.34 85.64 -123 87 C-127.95 84.525 -127.95 84.525 -133 82 C-134.65 80.35 -136.3 78.7 -138 77 C-139.65 74.36 -141.3 71.72 -143 69 C-144.32 65.37 -145.64 61.74 -147 58 C-148.65 58.66 -150.3 59.32 -152 60 C-155.63 62.97 -159.26 65.94 -163 69 C-167.29 72.96 -171.58 76.92 -176 81 C-180.62 85.62 -185.24 90.24 -190 95 C-192.97 98.63 -195.94 102.26 -199 106 C-205.93 114.91 -205.93 114.91 -213 124 C-216.96 129.94 -216.96 129.94 -221 136 C-224.96 141.61 -228.92 147.22 -233 153 C-236.63 157.62 -240.26 162.24 -244 167 C-248.62 171.95 -253.24 176.9 -258 182 C-260.97 184.97 -263.94 187.94 -267 191 C-269.31 193.64 -271.62 196.28 -274 199 C-278.95 204.94 -278.95 204.94 -284 211 C-287.3 215.95 -290.6 220.9 -294 226 C-296.64 230.95 -299.28 235.9 -302 241 C-304.64 247.93 -307.28 254.86 -310 262 C-313.96 273.22 -317.92 284.44 -322 296 C-325.63 304.91 -329.26 313.82 -333 323 C-336.63 330.92 -340.26 338.84 -344 347 C-347.96 354.59 -351.92 362.18 -356 370 C-360.455 377.425 -360.455 377.425 -365 385 C-369.95 392.92 -374.9 400.84 -380 409 C-384.62 416.26 -389.24 423.52 -394 431 C-398.29 438.59 -402.58 446.18 -407 454 C-411.29 462.91 -415.58 471.82 -420 481 C-423.63 490.57 -427.26 500.14 -431 510 C-435.455 524.355 -435.455 524.355 -440 539 C-441.98 547.91 -443.96 556.82 -446 566 C-447.32 572.6 -448.64 579.2 -450 586 C-453.465 593.92 -453.465 593.92 -457 602 C-458.65 606.29 -460.3 610.58 -462 615 C-463.65 622.26 -465.3 629.52 -467 637 C-467.33 642.61 -467.66 648.22 -468 654 C-467.34 656.97 -466.68 659.94 -466 663 C-464.68 662.34 -463.36 661.68 -462 661 C-460.02 658.525 -460.02 658.525 -458 656 C-455.69 651.05 -453.38 646.1 -451 641 C-451 640.34 -451 639.68 -451 639 C-450.34 639 -449.68 639 -449 639 C-448.01 648.24 -447.02 657.48 -446 667 C-446 684.82 -446 702.64 -446 721 C-446.99 728.92 -447.98 736.84 -449 745 C-450.65 749.95 -452.3 754.9 -454 760 C-456.64 764.62 -459.28 769.24 -462 774 C-468.435 781.92 -468.435 781.92 -475 790 C-476.65 791.98 -478.3 793.96 -480 796 C-482.64 798.31 -485.28 800.62 -488 803 C-490.97 805.97 -493.94 808.94 -497 812 C-499.64 814.31 -502.28 816.62 -505 819 C-508.465 822.96 -508.465 822.96 -512 827 C-512.99 829.475 -512.99 829.475 -514 832 C-514.33 835.96 -514.66 839.92 -515 844 C-514.01 848.95 -513.02 853.9 -512 859 C-510.02 864.94 -508.04 870.88 -506 877 C-502.37 884.92 -498.74 892.84 -495 901 C-493.02 904.63 -491.04 908.26 -489 912 C-487.68 913.65 -486.36 915.3 -485 917 C-481.37 919.64 -477.74 922.28 -474 925 C-469.05 926.485 -469.05 926.485 -464 928 C-461.36 928.33 -458.72 928.66 -456 929 C-450.06 929 -444.12 929 -438 929 C-438.99 926.03 -439.98 923.06 -441 920 C-443.64 917.36 -446.28 914.72 -449 912 C-448.67 911.34 -448.34 910.68 -448 910 C-443.545 911.485 -443.545 911.485 -439 913 C-435.04 915.97 -435.04 915.97 -431 919 C-429.35 922.3 -427.7 925.6 -426 929 C-420.39 929 -414.78 929 -409 929 C-409.33 926.69 -409.66 924.38 -410 922 C-411.32 920.02 -412.64 918.04 -414 916 C-415.32 914.02 -416.64 912.04 -418 910 C-415.69 910.66 -413.38 911.32 -411 912 C-408.36 914.31 -405.72 916.62 -403 919 C-401.35 921.64 -399.7 924.28 -398 927 C-396.35 926.67 -394.7 926.34 -393 926 C-393 923.69 -393 921.38 -393 919 C-394.65 916.36 -396.3 913.72 -398 911 C-400.97 908.36 -403.94 905.72 -407 903 C-411.95 900.36 -416.9 897.72 -422 895 C-422.99 893.68 -423.98 892.36 -425 891 C-425.33 887.7 -425.66 884.4 -426 881 C-425.01 878.03 -424.02 875.06 -423 872 C-419.535 868.04 -419.535 868.04 -416 864 C-412.7 861.69 -409.4 859.38 -406 857 C-394.45 851.06 -382.9 845.12 -371 839 C-364.4 835.37 -357.8 831.74 -351 828 C-347.04 825.36 -343.08 822.72 -339 820 C-333.06 815.545 -333.06 815.545 -327 811 C-323.04 807.37 -319.08 803.74 -315 800 C-312.03 796.7 -309.06 793.4 -306 790 C-300.06 781.585 -300.06 781.585 -294 773 C-290.04 765.41 -286.08 757.82 -282 750 C-279.69 744.06 -277.38 738.12 -275 732 C-272.36 722.76 -269.72 713.52 -267 704 C-264.69 694.43 -262.38 684.86 -260 675 C-259.34 672.03 -258.68 669.06 -258 666 C-258 664.68 -258 663.36 -258 662 C-257.34 662 -256.68 662 -256 662 C-255.34 668.6 -254.68 675.2 -254 682 C-254 686.62 -254 691.24 -254 696 C-255.485 707.385 -255.485 707.385 -257 719 C-258.98 727.25 -260.96 735.5 -263 744 C-264.98 749.61 -266.96 755.22 -269 761 C-265.04 763.475 -265.04 763.475 -261 766 C-253.74 770.29 -246.48 774.58 -239 779 C-234.38 782.3 -229.76 785.6 -225 789 C-221.7 791.64 -218.4 794.28 -215 797 C-210.05 801.455 -210.05 801.455 -205 806 C-202.69 808.31 -200.38 810.62 -198 813 C-194.7 817.29 -191.4 821.58 -188 826 C-182.555 834.415 -182.555 834.415 -177 843 C-171.72 852.57 -166.44 862.14 -161 872 C-157.04 879.59 -153.08 887.18 -149 895 C-146.69 898.3 -144.38 901.6 -142 905 C-139.36 906.65 -136.72 908.3 -134 910 C-133.01 910.33 -132.02 910.66 -131 911 C-126.05 911 -121.1 911 -116 911 C-111.71 909.68 -107.42 908.36 -103 907 C-94.09 903.04 -94.09 903.04 -85 899 C-75.76 894.05 -66.52 889.1 -57 884 C-51.39 880.7 -45.78 877.4 -40 874 C-34.72 870.7 -29.44 867.4 -24 864 C-22.02 862.68 -20.04 861.36 -18 860 C-18.33 858.68 -18.66 857.36 -19 856 C-21.64 854.35 -24.28 852.7 -27 851 C-28.32 850.67 -29.64 850.34 -31 850 C-35.62 849.67 -40.24 849.34 -45 849 C-45 848.01 -45 847.02 -45 846 C-43.35 845.34 -41.7 844.68 -40 844 C-36.7 843.01 -33.4 842.02 -30 841 C-27.36 841 -24.72 841 -22 841 C-18.37 842.32 -14.74 843.64 -11 845 C-9.02 846.32 -7.04 847.64 -5 849 C-3.02 846.69 -1.04 844.38 1 842 C0.67 840.68 0.34 839.36 0 838 C-1.65 836.68 -3.3 835.36 -5 834 C-10.445 832.515 -10.445 832.515 -16 831 C-20.62 831 -25.24 831 -30 831 C-42.375 833.475 -42.375 833.475 -55 836 C-59.62 836 -64.24 836 -69 836 C-70.98 835.01 -72.96 834.02 -75 833 C-77.475 830.525 -77.475 830.525 -80 828 C-81.32 825.36 -82.64 822.72 -84 820 C-85.485 814.06 -85.485 814.06 -87 808 C-88.65 794.8 -90.3 781.6 -92 768 C-93.98 757.11 -95.96 746.22 -98 735 C-99.98 727.74 -101.96 720.48 -104 713 C-107.96 704.75 -111.92 696.5 -116 688 C-119.63 682.06 -123.26 676.12 -127 670 C-130.96 664.06 -134.92 658.12 -139 652 C-140.32 653.32 -141.64 654.64 -143 656 C-147.95 663.92 -147.95 663.92 -153 672 C-157.29 677.61 -161.58 683.22 -166 689 C-169.96 693.29 -173.92 697.58 -178 702 C-182.29 705.96 -186.58 709.92 -191 714 C-196.94 717.96 -202.88 721.92 -209 726 C-216.425 729.96 -216.425 729.96 -224 734 C-226.31 734.66 -228.62 735.32 -231 736 C-229.02 733.69 -227.04 731.38 -225 729 C-221.7 726.03 -218.4 723.06 -215 720 C-210.71 716.04 -206.42 712.08 -202 708 C-198.04 704.04 -194.08 700.08 -190 696 C-187.03 692.37 -184.06 688.74 -181 685 C-177.7 680.71 -174.4 676.42 -171 672 C-167.04 665.73 -163.08 659.46 -159 653 C-156.03 647.72 -153.06 642.44 -150 637 C-146.37 630.07 -142.74 623.14 -139 616 C-133.555 602.635 -133.555 602.635 -128 589 C-126.35 583.39 -124.7 577.78 -123 572 C-123.33 570.68 -123.66 569.36 -124 568 C-130.93 565.36 -137.86 562.72 -145 560 C-154.9 555.545 -154.9 555.545 -165 551 C-173.415 546.545 -173.415 546.545 -182 542 C-187.28 538.37 -192.56 534.74 -198 531 C-203.61 526.38 -209.22 521.76 -215 517 C-218.63 513.37 -222.26 509.74 -226 506 C-229.96 502.535 -229.96 502.535 -234 499 C-236.31 496.36 -238.62 493.72 -241 491 C-245.62 486.38 -250.24 481.76 -255 477 C-260.445 470.07 -260.445 470.07 -266 463 C-268.64 457.72 -271.28 452.44 -274 447 C-275.65 441.72 -277.3 436.44 -279 431 C-279.33 429.35 -279.66 427.7 -280 426 C-280.33 419.73 -280.66 413.46 -281 407 C-280.34 407 -279.68 407 -279 407 C-278.34 408.98 -277.68 410.96 -277 413 C-273.37 420.59 -269.74 428.18 -266 436 C-262.7 441.28 -259.4 446.56 -256 452 C-252.04 456.95 -252.04 456.95 -248 462 C-244.7 465.3 -241.4 468.6 -238 472 C-235.69 474.64 -233.38 477.28 -231 480 C-226.05 484.95 -221.1 489.9 -216 495 C-212.04 498.465 -212.04 498.465 -208 502 C-203.38 505.96 -198.76 509.92 -194 514 C-188.39 517.96 -182.78 521.92 -177 526 C-170.07 529.96 -163.14 533.92 -156 538 C-147.75 541.96 -139.5 545.92 -131 550 C-118.625 554.455 -118.625 554.455 -106 559 C-95.11 561.97 -95.11 561.97 -84 565 C-74.43 566.65 -64.86 568.3 -55 570 C-51.37 570.33 -47.74 570.66 -44 571 C-34.43 571 -24.86 571 -15 571 C-8.73 570.01 -2.46 569.02 4 568 C10.6 566.02 17.2 564.04 24 562 C29.28 559.36 34.56 556.72 40 554 C43.3 551.36 46.6 548.72 50 546 C50 545.01 50 544.02 50 543 C47.69 543.99 45.38 544.98 43 546 C39.7 546.33 36.4 546.66 33 547 C31.68 546.34 30.36 545.68 29 545 C34.28 542.36 39.56 539.72 45 537 C48.63 534.69 52.26 532.38 56 530 C58.31 527.36 60.62 524.72 63 522 C63.33 520.02 63.66 518.04 64 516 C63.34 515.01 62.68 514.02 62 513 C59.36 512.67 56.72 512.34 54 512 C51.03 516.455 51.03 516.455 48 521 C43.545 523.97 43.545 523.97 39 527 C35.7 527.99 32.4 528.98 29 530 C24.71 530 20.42 530 16 530 C15.01 529.34 14.02 528.68 13 528 C13 527.34 13 526.68 13 526 C18.61 524.35 24.22 522.7 30 521 C32.97 519.02 35.94 517.04 39 515 C39.99 513.35 40.98 511.7 42 510 C38.04 508.515 38.04 508.515 34 507 C16.18 503.37 -1.64 499.74 -20 496 C-27.26 494.02 -34.52 492.04 -42 490 C-47.28 487.69 -52.56 485.38 -58 483 C-61.63 481.02 -65.26 479.04 -69 477 C-73.62 473.37 -78.24 469.74 -83 466 C-85.64 463.36 -88.28 460.72 -91 458 C-94.96 454.535 -94.96 454.535 -99 451 C-104.28 445.39 -109.56 439.78 -115 434 C-118.63 430.37 -122.26 426.74 -126 423 C-127.98 419.04 -129.96 415.08 -132 411 C-135.96 398.625 -135.96 398.625 -140 386 C-142.97 375.44 -145.94 364.88 -149 354 C-151.97 344.1 -154.94 334.2 -158 324 C-159.65 318.72 -161.3 313.44 -163 308 C-163 307.34 -163 306.68 -163 306 C-159.04 311.94 -155.08 317.88 -151 324 C-147.04 332.25 -143.08 340.5 -139 349 C-137.02 354.61 -135.04 360.22 -133 366 C-132.67 366 -132.34 366 -132 366 C-132 324.75 -132 283.5 -132 241 C-131.34 237.37 -130.68 233.74 -130 230 C-129.01 229.01 -128.02 228.02 -127 227 C-118.42 223.7 -109.84 220.4 -101 217 C-94.73 214.03 -88.46 211.06 -82 208 C-75.565 205.525 -75.565 205.525 -69 203 C-63.72 202.01 -58.44 201.02 -53 200 C-47.39 200 -41.78 200 -36 200 C-28.74 200.99 -21.48 201.98 -14 203 C2.335 206.465 2.335 206.465 19 210 C25.6 210 32.2 210 39 210 C38.67 209.34 38.34 208.68 38 208 C34.04 206.68 30.08 205.36 26 204 C21.71 201.69 17.42 199.38 13 197 C11.02 195.35 9.04 193.7 7 192 C6.34 190.35 5.68 188.7 5 187 C7.31 187.33 9.62 187.66 12 188 C16.62 190.64 21.24 193.28 26 196 C32.93 198.475 32.93 198.475 40 201 C45.61 201 51.22 201 57 201 C59.64 199.68 62.28 198.36 65 197 C65.66 196.01 66.32 195.02 67 194 C64.36 192.68 61.72 191.36 59 190 C57.68 188.35 56.36 186.7 55 185 C54.34 183.35 53.68 181.7 53 180 C53 177.36 53 174.72 53 172 C54.485 169.525 54.485 169.525 56 167 C61.28 165.35 66.56 163.7 72 162 C75.3 161.34 78.6 160.68 82 160 C79.69 156.37 77.38 152.74 75 149 C71.04 143.72 67.08 138.44 63 133 C59.04 127.72 55.08 122.44 51 117 C49.515 114.03 49.515 114.03 48 111 C48 108.03 48 105.06 48 102 C48.66 101.01 49.32 100.02 50 99 C49.67 95.7 49.34 92.4 49 89 C44.545 82.07 44.545 82.07 40 75 C36.04 70.05 36.04 70.05 32 65 C26.555 59.06 26.555 59.06 21 53 C17.04 49.37 13.08 45.74 9 42 C4.38 39.03 -0.24 36.06 -5 33 C-10.28 30.69 -15.56 28.38 -21 26 C-27.27 24.35 -33.54 22.7 -40 21 C-44.29 20.34 -48.58 19.68 -53 19 C-58.28 19 -63.56 19 -69 19 Z M94 181 C93.67 182.32 93.34 183.64 93 185 C95.97 184.34 98.94 183.68 102 183 C102 182.34 102 181.68 102 181 C99.36 181 96.72 181 94 181 Z M116 184 C99.17 190.435 99.17 190.435 82 197 C79.36 199.64 76.72 202.28 74 205 C67.07 209.455 67.07 209.455 60 214 C52.575 216.475 52.575 216.475 45 219 C39.06 219.99 39.06 219.99 33 221 C27.06 221.495 27.06 221.495 21 222 C11.43 225.96 1.86 229.92 -8 234 C-22.355 239.445 -22.355 239.445 -37 245 C-35.68 245.66 -34.36 246.32 -33 247 C-24.42 248.65 -15.84 250.3 -7 252 C-4.03 251.505 -4.03 251.505 -1 251 C8.24 247.04 17.48 243.08 27 239 C41.85 232.73 56.7 226.46 72 220 C86.85 213.73 101.7 207.46 117 201 C130.86 195.555 130.86 195.555 145 190 C144.67 189.34 144.34 188.68 144 188 C134.76 186.68 125.52 185.36 116 184 Z M159 191 C144.81 196.94 130.62 202.88 116 209 C103.13 214.28 90.26 219.56 77 225 C64.625 230.445 64.625 230.445 52 236 C31.705 244.415 31.705 244.415 11 253 C11.33 253.66 11.66 254.32 12 255 C34.77 259.455 34.77 259.455 58 264 C64.93 265.65 71.86 267.3 79 269 C80.98 269.495 80.98 269.495 83 270 C92.24 265.71 101.48 261.42 111 257 C125.85 250.73 140.7 244.46 156 238 C167.88 233.05 179.76 228.1 192 223 C206.85 216.565 206.85 216.565 222 210 C225.63 208.68 229.26 207.36 233 206 C232.67 205.34 232.34 204.68 232 204 C208.57 199.71 185.14 195.42 161 191 C160.34 191 159.68 191 159 191 Z M-50 211 C-54.62 211.99 -59.24 212.98 -64 214 C-78.85 219.28 -93.7 224.56 -109 230 C-107.02 230.99 -107.02 230.99 -105 232 C-79.26 237.445 -79.26 237.445 -53 243 C-49.04 242.505 -49.04 242.505 -45 242 C-33.45 237.05 -21.9 232.1 -10 227 C-1.09 223.535 -1.09 223.535 8 220 C8 219.67 8 219.34 8 219 C-1.9 217.02 -11.8 215.04 -22 213 C-27.61 212.34 -33.22 211.68 -39 211 C-42.63 211 -46.26 211 -50 211 Z M242 212 C226.49 218.6 210.98 225.2 195 232 C182.13 237.28 169.26 242.56 156 248 C141.81 253.94 127.62 259.88 113 266 C104.09 269.3 95.18 272.6 86 276 C86 287.55 86 299.1 86 311 C86.33 374.36 86.66 437.72 87 503 C88.98 502.34 90.96 501.68 93 501 C103.56 495.72 114.12 490.44 125 485 C132.92 481.04 132.92 481.04 141 477 C143.31 472.05 145.62 467.1 148 462 C149.98 459.36 151.96 456.72 154 454 C157.465 452.02 157.465 452.02 161 450 C164.465 449.01 164.465 449.01 168 448 C169.65 445.36 171.3 442.72 173 440 C174.98 438.68 176.96 437.36 179 436 C181.97 435.67 184.94 435.34 188 435 C189.65 434.34 191.3 433.68 193 433 C194.65 432.01 196.3 431.02 198 430 C201.96 430 205.92 430 210 430 C212.64 431.32 215.28 432.64 218 434 C219.32 434.66 220.64 435.32 222 436 C228.93 432.7 235.86 429.4 243 426 C243.66 355.38 244.32 284.76 245 212 C244.01 212 243.02 212 242 212 Z M-122 238 C-122.33 238.33 -122.66 238.66 -123 239 C-123 253.19 -123 267.38 -123 282 C-122.34 318.96 -121.68 355.92 -121 394 C-120.67 397.3 -120.34 400.6 -120 404 C-117.69 407.96 -115.38 411.92 -113 416 C-108.38 420.95 -103.76 425.9 -99 431 C-93.72 436.28 -88.44 441.56 -83 447 C-79.04 450.465 -79.04 450.465 -75 454 C-71.04 457.63 -67.08 461.26 -63 465 C-59.37 467.31 -55.74 469.62 -52 472 C-47.05 474.475 -47.05 474.475 -42 477 C-34.08 479.31 -26.16 481.62 -18 484 C2.79 488.29 23.58 492.58 45 497 C49.95 498.485 49.95 498.485 55 500 C60.94 501.32 66.88 502.64 73 504 C74.98 504 76.96 504 79 504 C78.67 497.73 78.34 491.46 78 485 C78 416.03 78 347.06 78 276 C67.605 274.515 67.605 274.515 57 273 C41.82 270.03 26.64 267.06 11 264 C7.04 263.34 3.08 262.68 -1 262 C-1.33 282.46 -1.66 302.92 -2 324 C-2.66 324.66 -3.32 325.32 -4 326 C-6.97 325.34 -9.94 324.68 -13 324 C-21.58 321.03 -30.16 318.06 -39 315 C-42.96 314.67 -46.92 314.34 -51 314 C-51.33 310.37 -51.66 306.74 -52 303 C-52.33 286.17 -52.66 269.34 -53 252 C-75.44 247.38 -97.88 242.76 -121 238 C-121.33 238 -121.66 238 -122 238 Z M-44 254 C-44 270.83 -44 287.66 -44 305 C-41.69 305.66 -39.38 306.32 -37 307 C-30.07 309.31 -23.14 311.62 -16 314 C-14.02 314.66 -12.04 315.32 -10 316 C-9.67 297.52 -9.34 279.04 -9 260 C-19.56 258.02 -30.12 256.04 -41 254 C-41.99 254 -42.98 254 -44 254 Z M201 440 C200.67 441.32 200.34 442.64 200 444 C201.32 446.97 202.64 449.94 204 453 C204.33 454.32 204.66 455.64 205 457 C205 460.63 205 464.26 205 468 C204.01 470.64 203.02 473.28 202 476 C201.34 477.32 200.68 478.64 200 480 C198.515 480.495 198.515 480.495 197 481 C197 475.72 197 470.44 197 465 C195.68 460.71 194.36 456.42 193 452 C191.68 450.35 190.36 448.7 189 447 C187.35 446.67 185.7 446.34 184 446 C182.35 447.32 180.7 448.64 179 450 C178.67 452.31 178.34 454.62 178 457 C178.99 459.31 179.98 461.62 181 464 C181.495 470.435 181.495 470.435 182 477 C181.01 480.3 180.02 483.6 179 487 C177.68 488.98 176.36 490.96 175 493 C173.68 493.33 172.36 493.66 171 494 C171.33 491.36 171.66 488.72 172 486 C172 481.71 172 477.42 172 473 C171.01 469.7 170.02 466.4 169 463 C168.505 462.01 168.505 462.01 168 461 C166.35 461 164.7 461 163 461 C161.02 463.31 159.04 465.62 157 468 C153.04 476.91 153.04 476.91 149 486 C145.535 490.455 145.535 490.455 142 495 C139.03 497.31 136.06 499.62 133 502 C129.7 502.99 126.4 503.98 123 505 C123.99 503.35 124.98 501.7 126 500 C126.99 498.68 127.98 497.36 129 496 C127.02 496.66 125.04 497.32 123 498 C111.78 503.28 100.56 508.56 89 514 C87.02 514.495 87.02 514.495 85 515 C82.03 515 79.06 515 76 515 C75.67 517.97 75.34 520.94 75 524 C76.98 524.66 78.96 525.32 81 526 C88.92 526.99 96.84 527.98 105 529 C112.59 529 120.18 529 128 529 C133.94 528.01 139.88 527.02 146 526 C151.61 524.35 157.22 522.7 163 521 C168.61 518.36 174.22 515.72 180 513 C184.29 509.7 188.58 506.4 193 503 C195.31 500.69 197.62 498.38 200 496 C202.97 492.04 205.94 488.08 209 484 C210.98 479.38 212.96 474.76 215 470 C215.33 468.68 215.66 467.36 216 466 C216 461.38 216 456.76 216 452 C215.01 449.69 214.02 447.38 213 445 C211.35 443.35 209.7 441.7 208 440 C205.69 440 203.38 440 201 440 Z"/></g>
</svg>
